<?xml version="1.0" standalone="no"?>
<!DOCTYPE svg PUBLIC "-//W3C//DTD SVG 20010904//EN"
 "http://www.w3.org/TR/2001/REC-SVG-20010904/DTD/svg10.dtd">
<svg version="1.0" xmlns="http://www.w3.org/2000/svg"
 width="461.000000pt" height="461.000000pt" viewBox="0 0 461.000000 461.000000"
 preserveAspectRatio="xMidYMid meet">
<g transform="translate(0.000000,461.000000) scale(0.100000,-0.100000)"
fill="#68217A" stroke="none">
<path xmlns="http://www.w3.org/2000/svg" d="M2500 4064 c-56 -20 -105 -45 -173 -86 -43 -27 -80 -48 -82 -48 -2 0 -79 -44 -172 -98 -92 -54 -285 -165 -428 -247 -143 -81 -284 -164 -313 -182 -66 -43 -107 -99 -121 -164 -7 -33 -11 -275 -11 -699 0 -639 0 -650 21 -707 13 -35 36 -72 59 -93 20 -19 203 -130 406 -246 203 -117 425 -245 494 -285 283 -164 280 -163 341 -167 109 -8 58 -33 734 358 160 92 312 180 339 195 28 15 72 41 98 56 27 16 53 29 58 29 5 0 36 26 68 57 43 43 62 70 71 103 9 34 11 213 9 735 l-3 690 -29 46 c-16 25 -50 60 -75 78 -40 28 -345 207 -496 291 -27 15 -64 36 -82 46 -178 105 -490 283 -538 306 -57 29 -142 44 -175 32z m298 -643 c145 -42 286 -125 392 -231 54 -54 140 -168 140 -186 0 -6 -15 -19 -32 -27 -18 -9 -103 -56 -187 -106 -85 -50 -163 -91 -172 -91 -10 0 -20 9 -24 19 -9 29 -110 118 -164 146 -66 33 -124 46 -201 46 -191 0 -357 -122 -415 -304 -30 -95 -32 -173 -5 -259 104 -337 525 -427 758 -163 23 26 42 52 42 56 0 5 5 9 12 9 10 0 371 -202 388 -217 8 -7 -33 -72 -87 -138 -115 -139 -294 -251 -479 -297 -178 -45 -412 -24 -579 51 -221 101 -416 313 -489 533 -67 205 -54 469 34 664 111 248 354 446 618 504 119 27 343 22 450 -9z m632 -583 c-1 -7 -5 -32 -9 -55 l-8 -43 58 0 58 0 6 55 7 55 43 0 42 0 -8 -42 c-12 -65 -12 -68 21 -68 28 0 30 -2 30 -40 0 -39 -1 -40 -34 -40 -42 0 -44 -3 -52 -72 l-6 -55 33 1 c33 1 34 0 34 -39 0 -40 0 -40 -42 -43 -45 -3 -46 -5 -58 -74 -6 -37 -7 -38 -46 -38 l-40 0 7 48 c3 26 7 49 8 52 2 8 -11 10 -63 10 l-50 0 -6 -55 -7 -55 -45 0 c-37 0 -44 3 -40 18 3 9 8 34 12 55 5 32 3 37 -14 37 -39 0 -47 9 -43 50 4 38 5 39 38 38 19 -1 36 1 38 3 2 2 7 30 11 62 l7 57 -36 0 c-37 0 -37 0 -34 38 3 36 4 37 45 40 40 3 43 5 49 40 11 70 13 72 55 72 25 0 39 -5 39 -12z"/>
<path xmlns="http://www.w3.org/2000/svg" d="M3396 2645 c-3 -8 -8 -37 -12 -65 l-7 -50 56 0 c61 0 62 1 73 80 l7 50 -56 0 c-39 0 -56 -4 -61 -15z"/>
</g>
</svg>
